[Header]
FileType HTR
DataType HTRS
FileVersion 1
NumSegments 36
NumFrames 6
DataFrameRate 120
EulerRotationOrder ZYX
CalibrationUnits mm
RotationUnits Degrees
GlobalAxisofGravity Y
BoneLengthAxis Y
ScaleFactor 1.0
[SegmentNames&Hierarchy]
Hips	GLOBAL
Spine	Hips
Spine1	Spine
Spine2	Spine1
Spine3	Spine2
Neck	Spine3
Head	Neck
HeadEnd	Head
RightShoulder	Spine3
RightArm	RightShoulder
RightForeArm	RightArm
RightForeArmRoll	RightForeArm
RightHand	RightForeArmRoll
RightHandEnd	RightHand
R_FingersEnd	RightHandEnd
RightHandThumb1	RightHand
RightHandThumb2	RightHandThumb1
LeftShoulder	Spine3
LeftArm	LeftShoulder
LeftForeArm	LeftArm
LeftForeArmRoll	LeftForeArm
LeftHand	LeftForeArmRoll
LeftHandEnd	LeftHand
L_FingersEnd	LeftHandEnd
LeftHandThumb1	LeftHand
LeftHandThumb2	LeftHandThumb1
RightUpLeg	Hips
RightLeg	RightUpLeg
RightFoot	RightLeg
RightToeBase	RightFoot
RightToeBaseEnd	RightToeBase
LeftUpLeg	Hips
LeftLeg	LeftUpLeg
LeftFoot	LeftLeg
LeftToeBase	LeftFoot
LeftToeBaseEnd	LeftToeBase
[BasePosition]
Hips	0	0	0	0	0	0	1
Spine	0	0	0	-10	-0	0	1
Spine1	0	0	0	5	0	0	1
Spine2	0	0	0	5	0	0	1
Spine3	0	0	0	0	0	0	1
Neck	0	0	0	10	0	0	1
Head	0	0	0	-10	-0	0	1
HeadEnd	0	0	0	0	0	0	1
RightShoulder	0	0	0	-180	-0	-180	1
RightArm	0	0	0	0	0	0	1
RightForeArm	0	0	0	0	0	0	1
RightForeArmRoll	0	0	0	0	0	0	1
RightHand	0	0	0	0	0	0	1
RightHandEnd	0	0	0	-90	-0	0	1
R_FingersEnd	0	0	0	0	0	0	1
RightHandThumb1	0	0	0	170	-0	-15	1
RightHandThumb2	0	0	0	0	0	0	1
LeftShoulder	0	0	0	0	0	0	1
LeftArm	0	0	0	0	0	0	1
LeftForeArm	0	0	0	0	0	0	1
LeftForeArmRoll	0	0	0	0	0	0	1
LeftHand	0	0	0	0	0	0	1
LeftHandEnd	0	0	0	90	0	0	1
L_FingersEnd	0	0	0	0	0	0	1
LeftHandThumb1	0	0	0	170	-0	-15	1
LeftHandThumb2	0	0	0	0	0	0	1
RightUpLeg	0	0	0	-0	90	0	1
RightLeg	0	0	0	0	0	0	1
RightFoot	0	0	0	0	-0	-70	1
RightToeBase	0	0	0	0	-0	-20	1
RightToeBaseEnd	0	0	0	0	0	0	1
LeftUpLeg	0	0	0	-0	90	0	1
LeftLeg	0	0	0	0	0	0	1
LeftFoot	0	0	0	0	-0	-70	1
LeftToeBase	0	0	0	0	-0	-20	1
LeftToeBaseEnd	0	0	0	0	0	0	1
[Hips]
1	0	970.4248047	0	-90	-0	0	1.0
2	-1.160676003	970.4595947	-4.488057137	-89.9990387	-0.0553102009	0.08049016446	1.0
3	-2.405917168	970.4959106	-9.315217972	-89.99950409	-0.113150768	0.1649595946	1.0
4	-3.608875275	970.5314941	-13.97282696	-89.9973526	-0.1659345627	0.2414684892	1.0
5	-4.64270401	970.5640259	-17.95222855	-89.9885025	-0.2060834765	0.2980704904	1.0
6	-5.380554199	970.5913086	-20.74476624	-89.96948242	-0.2290433794	0.3271358907	1.0
[Spine]
1	0	44.87670517	67.31505585	0	0	0	1.0
2	0	44.87670517	67.31505585	-0.06614008546	0.07860460877	0.01573448814	1.0
3	0	44.87670517	67.31505585	-0.1354884058	0.1608243585	0.03213662654	1.0
4	0	44.87670517	67.31505585	-0.1984202564	0.2358138114	0.0472034663	1.0
5	0	44.87670517	67.31505585	-0.2453109175	0.2927275896	0.05893204734	1.0
6	0	44.87670517	67.31505585	-0.2709803283	0.3259910941	0.06636108458	1.0
[Spine1]
1	0	0	89.75341034	0	0	0.001512456452	1.0
2	0	0	89.75341034	-0.1676089168	0.01672137901	0.002440059558	1.0
3	0	0	89.75341034	-0.3433046341	0.03456227481	0.003416184103	1.0
4	0	0	89.75341034	-0.5028266907	0.05016413331	0.004295265302	1.0
5	0	0	89.75341034	-0.621914804	0.06016840786	0.004931738134	1.0
6	0	0	89.75341034	-0.6877765656	0.06243204325	0.005226425361	1.0
[Spine2]
1	0	0	89.75341034	0	0	0	1.0
2	0	0	89.75341034	0.4101063013	0.1327014863	0.07838030159	1.0
3	0	0	89.75341034	0.8404175639	0.271052897	0.1593143344	1.0
4	0	0	89.75341034	1.230318785	0.398104459	0.2351408899	1.0
5	0	0	89.75341034	1.519195318	0.4969064891	0.2981987894	1.0
6	0	0	89.75341034	1.674437761	0.5593746901	0.3456870615	1.0
[Spine3]
1	0	0	89.75341034	0	0	0	1.0
2	0	0	89.75341034	0.04404361919	-0.09107135236	-0.01989604905	1.0
3	0	0	89.75341034	0.09034962952	-0.1862549633	-0.04077257961	1.0
4	0	0	89.75341034	0.1321308464	-0.2732140422	-0.05968814343	1.0
5	0	0	89.75341034	0.1626000553	-0.3396117985	-0.07370129228	1.0
6	0	0	89.75341034	0.1779379845	-0.3796050549	-0.0813607052	1.0
[Neck]
1	0	-33.65752792	235.6027069	0	0	0	1.0
2	0	-33.65752792	235.6027069	-0.2737200856	-0.01049567573	-0.0454396084	1.0
3	0	-33.65752792	235.6027069	-0.5597864985	-0.02064628713	-0.09316247702	1.0
4	0	-33.65752792	235.6027069	-0.8211602569	-0.03148702532	-0.1363188177	1.0
5	0	-33.65752792	235.6027069	-1.020802498	-0.04405308142	-0.1680587977	1.0
6	0	-33.65752792	235.6027069	-1.140512109	-0.06213628501	-0.1850393564	1.0
[Head]
1	0	0	123.4109421	0	0	0	1.0
2	0	0	123.4109421	-0.2412963212	-0.05422607809	-0.2478221059	1.0
3	0	0	123.4109421	-0.4945042133	-0.1118125916	-0.5058327913	1.0
4	0	0	123.4109421	-0.7238889933	-0.1626782417	-0.7434663773	1.0
5	0	0	123.4109421	-0.8937160373	-0.1967417747	-0.9301572442	1.0
6	0	0	123.4109421	-0.9843791723	-0.206742689	-1.052993655	1.0
[HeadEnd]
1	0	0	145.2883301	0	0	0	1.0
2	0	0	145.2883301	0	0	0	1.0
3	0	0	145.2883301	0	0	0	1.0
4	0	0	145.2883301	0	0	0	1.0
5	0	0	145.2883301	0	0	0	1.0
6	0	0	145.2883301	0	0	0	1.0
[RightShoulder]
1	-30.74827576	-51.24713135	166.0407104	0	0	0	1.0
2	-30.74827576	-51.24713135	166.0407104	-1.091840267	-1.365955353	0.1975381076	1.0
3	-30.74827576	-51.24713135	166.0407104	-2.234292984	-2.794766665	0.4035638571	1.0
4	-30.74827576	-51.24713135	166.0407104	-3.275520563	-4.097866058	0.5926142931	1.0
5	-30.74827576	-51.24713135	166.0407104	-4.063684464	-5.086687088	0.7392266393	1.0
6	-30.74827576	-51.24713135	166.0407104	-4.522875786	-5.667494297	0.8322969675	1.0
[RightArm]
1	152.7164459	0	0	0	0	0	1.0
2	152.7164459	0	0	-4.912570477	-16.14818764	0.04693097621	1.0
3	152.7164459	0	0	-9.970371246	-33.0449295	0.009735651314	1.0
4	152.7164459	0	0	-14.73771191	-48.44456482	0.1407929212	1.0
5	152.7164459	0	0	-18.77890015	-60.1014061	0.6924816966	1.0
6	152.7164459	0	0	-22.08595276	-66.87609863	2.010654449	1.0
[RightForeArm]
1	297.8946228	0	0	-1.608785876e-015	0	0	1.0
2	297.8946228	0	0	-1.234536015e-015	-1.581465437e-017	-7.231347561	1.0
3	297.8946228	0	0	-8.430331518e-016	-3.357896683e-017	-14.79446602	1.0
4	297.8946228	0	0	-4.860365049e-016	-4.744396312e-017	-21.69404221	1.0
5	297.8946228	0	0	-2.153055314e-016	-5.156065574e-017	-26.93475914	1.0
6	297.8946228	0	0	-5.683269468e-017	-3.980610491e-017	-30.02198029	1.0
[RightForeArmRoll]
1	122.9768982	0	0	0	0	0	1.0
2	122.9768982	0	0	1.056821108	0	0	1.0
3	122.9768982	0	0	2.159314632	0	0	1.0
4	122.9768982	0	0	3.170463324	0	0	1.0
5	122.9768982	0	0	3.953249693	0	0	1.0
6	122.9768982	0	0	4.446844578	0	0	1.0
[RightHand]
1	127.1009369	0	0	0	0	0	1.0
2	127.1009369	0	0	0.007689012215	1.841786742	-0.7041345239	1.0
3	127.1009369	0	0	0.01633342542	3.768097401	-1.438762426	1.0
4	127.1009369	0	0	0.02306703851	5.525360584	-2.112403393	1.0
5	127.1009369	0	0	0.02502365783	6.860005379	-2.633577347	1.0
6	127.1009369	0	0	0.01918753609	7.64353466	-2.960841656	1.0
[RightHandEnd]
1	72.05677795	0	0	0	0	0	1.0
2	72.05677795	0	0	0	0	0	1.0
3	72.05677795	0	0	0	0	0	1.0
4	72.05677795	0	0	0	0	0	1.0
5	72.05677795	0	0	0	0	0	1.0
6	72.05677795	0	0	0	0	0	1.0
[R_FingersEnd]
1	72.05677795	0	0	0	0	0	1.0
2	72.05677795	0	0	0	0	0	1.0
3	72.05677795	0	0	0	0	0	1.0
4	72.05677795	0	0	0	0	0	1.0
5	72.05677795	0	0	0	0	0	1.0
6	72.05677795	0	0	0	0	0	1.0
[RightHandThumb1]
1	28.82271004	-48.03784943	19.2151413	0	0	0	1.0
2	28.82271004	-48.03784943	19.2151413	0	0	0	1.0
3	28.82271004	-48.03784943	19.2151413	0	0	0	1.0
4	28.82271004	-48.03784943	19.2151413	0	0	0	1.0
5	28.82271004	-48.03784943	19.2151413	0	0	0	1.0
6	28.82271004	-48.03784943	19.2151413	0	0	0	1.0
[RightHandThumb2]
1	72.05677795	0	0	0	0	0	1.0
2	72.05677795	0	0	0	0	0	1.0
3	72.05677795	0	0	0	0	0	1.0
4	72.05677795	0	0	0	0	0	1.0
5	72.05677795	0	0	0	0	0	1.0
6	72.05677795	0	0	0	0	0	1.0
[LeftShoulder]
1	30.74827576	-51.24713135	166.0407104	0	0	0	1.0
2	30.74827576	-51.24713135	166.0407104	1.286729574	1.351471424	0.6905962825	1.0
3	30.74827576	-51.24713135	166.0407104	2.630589724	2.765268326	1.412090302	1.0
4	30.74827576	-51.24713135	166.0407104	3.860188484	4.054413795	2.071788788	1.0
5	30.74827576	-51.24713135	166.0407104	4.804135323	5.0319314	2.57699728	1.0
6	30.74827576	-51.24713135	166.0407104	5.384288311	5.602151394	2.883006096	1.0
[LeftArm]
1	152.7164459	0	0	0	0	0	1.0
2	152.7164459	0	0	3.717872143	16.60720634	-4.474287033	1.0
3	152.7164459	0	0	7.855555058	34.04149628	-8.835687637	1.0
4	152.7164459	0	0	11.15361595	49.82161713	-13.42286015	1.0
5	152.7164459	0	0	12.3526268	61.46629715	-18.57446289	1.0
6	152.7164459	0	0	10.12343979	67.545578	-25.36128807	1.0
[LeftForeArm]
1	297.8946228	0	0	-7.951386796e-016	2.484808473e-016	0	1.0
2	297.8946228	0	0	-6.120159798e-016	1.859561309e-016	-4.471734047	1.0
3	297.8946228	0	0	-4.20601145e-016	1.20185849e-016	-9.148701668	1.0
4	297.8946228	0	0	-2.457706595e-016	6.090669155e-017	-13.41520309	1.0
5	297.8946228	0	0	-1.124010206e-016	1.785538008e-017	-16.65553665	1.0
6	297.8946228	0	0	-3.258415311e-017	-3.132341487e-018	-18.56404495	1.0
[LeftForeArmRoll]
1	122.9768982	0	0	0	0	0	1.0
2	122.9768982	0	0	-1.258663654	0	0	1.0
3	122.9768982	0	0	-2.582890272	0	0	1.0
4	122.9768982	0	0	-3.775990486	0	0	1.0
5	122.9768982	0	0	-4.64127636	0	0	1.0
6	122.9768982	0	0	-5.064823151	0	0	1.0
[LeftHand]
1	127.1009369	0	0	0	0	0	1.0
2	127.1009369	0	0	0.003284438979	-4.978546619	0.09464412183	1.0
3	127.1009369	0	0	0.007019001525	-10.18864346	0.1886162162	1.0
4	127.1009369	0	0	0.009853316471	-14.93563843	0.2839323282	1.0
5	127.1009369	0	0	0.01043701451	-18.52488136	0.3826085627	1.0
6	127.1009369	0	0	0.007263446692	-20.60179138	0.4957652092	1.0
[LeftHandEnd]
1	72.05677795	0	0	0	0	0	1.0
2	72.05677795	0	0	0	0	0	1.0
3	72.05677795	0	0	0	0	0	1.0
4	72.05677795	0	0	0	0	0	1.0
5	72.05677795	0	0	0	0	0	1.0
6	72.05677795	0	0	0	0	0	1.0
[L_FingersEnd]
1	72.05677795	0	0	0	0	0	1.0
2	72.05677795	0	0	0	0	0	1.0
3	72.05677795	0	0	0	0	0	1.0
4	72.05677795	0	0	0	0	0	1.0
5	72.05677795	0	0	0	0	0	1.0
6	72.05677795	0	0	0	0	0	1.0
[LeftHandThumb1]
1	28.82271004	-48.03784943	-19.2151413	0	0	0	1.0
2	28.82271004	-48.03784943	-19.2151413	0	0	0	1.0
3	28.82271004	-48.03784943	-19.2151413	0	0	0	1.0
4	28.82271004	-48.03784943	-19.2151413	0	0	0	1.0
5	28.82271004	-48.03784943	-19.2151413	0	0	0	1.0
6	28.82271004	-48.03784943	-19.2151413	0	0	0	1.0
[LeftHandThumb2]
1	72.05677795	0	0	0	0	0	1.0
2	72.05677795	0	0	0	0	0	1.0
3	72.05677795	0	0	0	0	0	1.0
4	72.05677795	0	0	0	0	0	1.0
5	72.05677795	0	0	0	0	0	1.0
6	72.05677795	0	0	0	0	0	1.0
[RightUpLeg]
1	-91.21989441	0	-26.64850616	0	0	0	1.0
2	-91.21989441	0	-26.64850616	2.349807739	1.077744365	-0.02364524081	1.0
3	-91.21989441	0	-26.64850616	4.808021545	2.20539999	-0.05002842844	1.0
4	-91.21989441	0	-26.64850616	7.049423218	3.233232975	-0.07093571872	1.0
5	-91.21989441	0	-26.64850616	8.748793602	4.011510372	-0.07815326005	1.0
6	-91.21989441	0	-26.64850616	9.742485046	4.4627738	-0.06110771745	1.0
[RightLeg]
1	402.8824463	0	0	0	0	0	1.0
2	402.8824463	0	0	0	0	3.467410088	1.0
3	402.8824463	0	0	0	0	7.092624664	1.0
4	402.8824463	0	0	0	0	10.40223026	1.0
5	402.8824463	0	0	0	0	12.92280865	1.0
6	402.8824463	0	0	0	0	14.42087555	1.0
[RightFoot]
1	435.9781189	0	0	0	0	0	1.0
2	435.9781189	0	0	0.9526448846	-0.6702976227	-3.503348827	1.0
3	435.9781189	0	0	1.945772767	-1.374092102	-7.166558266	1.0
4	435.9781189	0	0	2.857934475	-2.01089263	-10.51004601	1.0
5	435.9781189	0	0	3.567682266	-2.480208158	-13.05422783	1.0
6	435.9781189	0	0	4.022587299	-2.72258997	-14.56193733	1.0
[RightToeBase]
1	183.1846619	0	0	0	0	0	1.0
2	183.1846619	0	0	0	0	0.2147221863	1.0
3	183.1846619	0	0	0	0	0.4390066266	1.0
4	183.1846619	0	0	0	0	0.6441665888	1.0
5	183.1846619	0	0	0	0	0.8015153408	1.0
6	183.1846619	0	0	0	0	0.897654891	1.0
[RightToeBaseEnd]
1	73.79586792	0	0	0	0	0	1.0
2	73.79586792	0	0	0	0	0	1.0
3	73.79586792	0	0	0	0	0	1.0
4	73.79586792	0	0	0	0	0	1.0
5	73.79586792	0	0	0	0	0	1.0
6	73.79586792	0	0	0	0	0	1.0
[LeftUpLeg]
1	91.21989441	0	-26.64850616	0	0	0	1.0
2	91.21989441	0	-26.64850616	0.3829625249	-1.103657365	0.4298282266	1.0
3	91.21989441	0	-26.64850616	0.7836505175	-2.257195473	0.8814563751	1.0
4	91.21989441	0	-26.64850616	1.148887634	-3.310971975	1.28948462	1.0
5	91.21989441	0	-26.64850616	1.42549789	-4.115345001	1.588512778	1.0
6	91.21989441	0	-26.64850616	1.585405469	-4.599308491	1.741423488	1.0
[LeftLeg]
1	402.8824463	0	0	0	0	0	1.0
2	402.8824463	0	0	0	0	2.428895712	1.0
3	402.8824463	0	0	0	0	4.968402863	1.0
4	402.8824463	0	0	0	0	7.286686897	1.0
5	402.8824463	0	0	0	0	9.051913261	1.0
6	402.8824463	0	0	0	0	10.10172558	1.0
[LeftFoot]
1	435.9781189	0	0	0	0	0	1.0
2	435.9781189	0	0	-1.889316082	-0.3320192993	-2.920288324	1.0
3	435.9781189	0	0	-3.86650157	-0.6773220301	-5.974491119	1.0
4	435.9781189	0	0	-5.667948723	-0.9960579276	-8.760865211	1.0
5	435.9781189	0	0	-7.030048847	-1.248376369	-10.87767029	1.0
6	435.9781189	0	0	-7.817972183	-1.417526245	-12.12531376	1.0
[LeftToeBase]
1	183.1846619	0	0	0	0	0	1.0
2	183.1846619	0	0	0	0	0.1814638823	1.0
3	183.1846619	0	0	0	0	0.371399641	1.0
4	183.1846619	0	0	0	0	0.5443916321	1.0
5	183.1846619	0	0	0	0	0.675024271	1.0
6	183.1846619	0	0	0	0	0.7498317361	1.0
[LeftToeBaseEnd]
1	73.79586792	0	0	0	0	0	1.0
2	73.79586792	0	0	0	0	0	1.0
3	73.79586792	0	0	0	0	0	1.0
4	73.79586792	0	0	0	0	0	1.0
5	73.79586792	0	0	0	0	0	1.0
6	73.79586792	0	0	0	0	0	1.0
[EndOfFile]
